<svg width="15" height="16" viewBox="0 0 15 16" fill="none" xmlns="http://www.w3.org/2000/svg">
<path d="M8.65412 0C5.29511 0 2.57412 2.72251 2.57412 6.08C2.57238 7.18609 2.87388 8.2715 3.44584 9.21823L0.49761 12.1661L0.50787 12.1763C0.19323 12.4775 3.63996e-08 12.905 3.63996e-08 13.3882C-0.000189964 14.3216 0.74347 15.0516 1.67599 15.0514C2.15232 15.0512 2.5783 14.8607 2.8823 14.5506L2.88971 14.558L5.93123 11.5163C6.77609 11.9405 7.70855 12.1609 8.65393 12.16C12.0131 12.16 14.7339 9.43787 14.7339 6.08C14.7339 2.72251 12.0131 0 8.65412 0ZM8.69098 9.76923C6.59148 9.76923 4.89098 8.06797 4.89098 5.96923C4.89098 3.87087 6.59167 2.16923 8.69098 2.16923C10.7905 2.16923 12.491 3.87068 12.491 5.96923C12.491 8.06797 10.7905 9.76923 8.69098 9.76923Z"/>
<path d="M10.9275 5.07446H6.45449C6.28957 5.07446 6.15619 5.20784 6.15619 5.37257V6.56539C6.15619 6.73012 6.28957 6.8635 6.45449 6.8635H10.9275C11.0065 6.8635 11.0824 6.8321 11.1383 6.7762C11.1943 6.7203 11.2257 6.64447 11.2258 6.56539V5.37257C11.2257 5.29349 11.1943 5.21767 11.1383 5.16177C11.0824 5.10586 11.0065 5.07446 10.9275 5.07446Z"/>
</svg>
