<svg width="13" height="13" viewBox="0 0 13 13" fill="none" xmlns="http://www.w3.org/2000/svg">
<path d="M5.08333 0.125H0.833333C0.645472 0.125 0.465304 0.199628 0.332466 0.332466C0.199628 0.465304 0.125 0.645472 0.125 0.833333V5.08333C0.125 5.27119 0.199628 5.45136 0.332466 5.5842C0.465304 5.71704 0.645472 5.79167 0.833333 5.79167H5.08333C5.27119 5.79167 5.45136 5.71704 5.5842 5.5842C5.71704 5.45136 5.79167 5.27119 5.79167 5.08333V0.833333C5.79167 0.645472 5.71704 0.465304 5.5842 0.332466C5.45136 0.199628 5.27119 0.125 5.08333 0.125V0.125ZM4.375 4.375H1.54167V1.54167H4.375V4.375ZM12.1667 0.125H7.91667C7.7288 0.125 7.54864 0.199628 7.4158 0.332466C7.28296 0.465304 7.20833 0.645472 7.20833 0.833333V5.08333C7.20833 5.27119 7.28296 5.45136 7.4158 5.5842C7.54864 5.71704 7.7288 5.79167 7.91667 5.79167H12.1667C12.3545 5.79167 12.5347 5.71704 12.6675 5.5842C12.8004 5.45136 12.875 5.27119 12.875 5.08333V0.833333C12.875 0.645472 12.8004 0.465304 12.6675 0.332466C12.5347 0.199628 12.3545 0.125 12.1667 0.125V0.125ZM11.4583 4.375H8.625V1.54167H11.4583V4.375ZM5.08333 7.20833H0.833333C0.645472 7.20833 0.465304 7.28296 0.332466 7.4158C0.199628 7.54864 0.125 7.7288 0.125 7.91667V12.1667C0.125 12.3545 0.199628 12.5347 0.332466 12.6675C0.465304 12.8004 0.645472 12.875 0.833333 12.875H5.08333C5.27119 12.875 5.45136 12.8004 5.5842 12.6675C5.71704 12.5347 5.79167 12.3545 5.79167 12.1667V7.91667C5.79167 7.7288 5.71704 7.54864 5.5842 7.4158C5.45136 7.28296 5.27119 7.20833 5.08333 7.20833ZM4.375 11.4583H1.54167V8.625H4.375V11.4583ZM10.0417 7.20833C8.47908 7.20833 7.20833 8.47908 7.20833 10.0417C7.20833 11.6042 8.47908 12.875 10.0417 12.875C11.6042 12.875 12.875 11.6042 12.875 10.0417C12.875 8.47908 11.6042 7.20833 10.0417 7.20833ZM10.0417 11.4583C9.26037 11.4583 8.625 10.823 8.625 10.0417C8.625 9.26037 9.26037 8.625 10.0417 8.625C10.823 8.625 11.4583 9.26037 11.4583 10.0417C11.4583 10.823 10.823 11.4583 10.0417 11.4583Z"/>
</svg>
