<svg width="12" height="12" viewBox="0 0 12 12" fill="none" xmlns="http://www.w3.org/2000/svg">
<path fill-rule="evenodd" clip-rule="evenodd" d="M11.7094 1.37597C11.7806 1.30479 11.8372 1.22028 11.8758 1.12725C11.9144 1.03422 11.9343 0.934496 11.9343 0.833775C11.9344 0.733054 11.9146 0.633308 11.8761 0.54023C11.8376 0.447153 11.7812 0.362567 11.71 0.291303C11.6389 0.220039 11.5543 0.163493 11.4613 0.124891C11.3683 0.08629 11.2686 0.0663903 11.1678 0.0663284C11.0671 0.0662665 10.9674 0.0860436 10.8743 0.12453C10.7812 0.163017 10.6966 0.21946 10.6254 0.290637L6.00003 4.91597L1.37603 0.290637C1.23211 0.146713 1.0369 0.0658569 0.833364 0.0658569C0.629825 0.0658569 0.434622 0.146713 0.290698 0.290637C0.146774 0.434561 0.065918 0.629764 0.065918 0.833304C0.065918 1.03684 0.146774 1.23205 0.290698 1.37597L4.91603 5.99997L0.290698 10.624C0.219434 10.6952 0.162904 10.7798 0.124336 10.8729C0.0857684 10.9661 0.065918 11.0659 0.065918 11.1666C0.065918 11.2674 0.0857684 11.3672 0.124336 11.4603C0.162904 11.5534 0.219434 11.638 0.290698 11.7093C0.434622 11.8532 0.629825 11.9341 0.833364 11.9341C0.934147 11.9341 1.03394 11.9142 1.12705 11.8757C1.22016 11.8371 1.30477 11.7806 1.37603 11.7093L6.00003 7.08397L10.6254 11.7093C10.7693 11.8531 10.9644 11.9337 11.1678 11.9336C11.3713 11.9335 11.5663 11.8526 11.71 11.7086C11.8538 11.5647 11.9345 11.3696 11.9343 11.1662C11.9342 10.9628 11.8533 10.7677 11.7094 10.624L7.08403 5.99997L11.7094 1.37597Z" fill="#6A6969"/>
</svg>
