<svg width="18" height="18" viewBox="0 0 18 18" fill="none" xmlns="http://www.w3.org/2000/svg">
<path d="M4.61291 9.84212V5.21055C4.61291 4.87554 4.77604 4.55425 5.06642 4.31736C5.3568 4.08047 5.75064 3.94739 6.16129 3.94739C6.57195 3.94739 6.96579 4.08047 7.25617 4.31736C7.54655 4.55425 7.70968 4.87554 7.70968 5.21055V9.84212" stroke="#3BEB2B" stroke-width="1.5" stroke-linecap="round" stroke-linejoin="round"/>
<path d="M17 9.42105V12.1579C17 14.832 14.3425 17 11.0645 17H10.5484C7.27046 17 4.61291 14.832 4.61291 12.1579V9.42105" stroke="#3BEB2B" stroke-width="1.5" stroke-linecap="round" stroke-linejoin="round"/>
<path d="M7.70968 11.1053V9C7.70968 8.66499 7.87282 8.34371 8.16319 8.10682C8.45357 7.86993 8.84741 7.73685 9.25807 7.73685C9.66873 7.73685 10.0626 7.86993 10.3529 8.10682C10.6433 8.34371 10.8065 8.66499 10.8065 9V11.1053" stroke="#3BEB2B" stroke-width="1.5" stroke-linecap="round" stroke-linejoin="round"/>
<path d="M10.8065 11.1053V9C10.8065 8.66499 10.9696 8.34371 11.26 8.10682C11.5503 7.86993 11.9442 7.73685 12.3548 7.73685C12.7655 7.73685 13.1593 7.86993 13.4497 8.10682C13.7401 8.34371 13.9032 8.66499 13.9032 9V11.1053" stroke="#3BEB2B" stroke-width="1.5" stroke-linecap="round" stroke-linejoin="round"/>
<path d="M13.9032 11.1053V9C13.9032 8.66499 14.0664 8.34371 14.3567 8.10682C14.6471 7.86993 15.041 7.73685 15.4516 7.73685C15.8623 7.73685 16.2561 7.86993 16.5465 8.10682C16.8369 8.34371 17 8.66499 17 9V11.1053" stroke="#3BEB2B" stroke-width="1.5" stroke-linecap="round" stroke-linejoin="round"/>
<path d="M11.3226 5.21053C11.3239 4.30927 10.9696 3.4316 10.312 2.70737C9.83244 2.17744 9.20697 1.74683 8.486 1.45027C7.76503 1.1537 6.96873 0.999467 6.16129 1C5.35386 0.999467 4.55756 1.1537 3.83659 1.45027C3.11562 1.74683 2.49015 2.17744 2.01058 2.70737C1.35301 3.4316 0.998679 4.30927 1 5.21053" stroke="#3BEB2B" stroke-width="1.5" stroke-linecap="round"/>
</svg>
