<svg width="15" height="16" viewBox="0 0 15 16" fill="none" xmlns="http://www.w3.org/2000/svg">
<path d="M8.8102 0C5.39054 0 2.62041 2.75348 2.62041 6.14917C2.61864 7.26785 2.92559 8.3656 3.50787 9.3231L0.506596 12.3045L0.517041 12.3149C0.196719 12.6194 3.70569e-08 13.0518 3.70569e-08 13.5405C-0.000193394 14.4846 0.756896 15.2228 1.70626 15.2227C2.19119 15.2225 2.62486 15.0297 2.93435 14.7161L2.94189 14.7236L6.03834 11.6473C6.89846 12.0763 7.84775 12.2993 8.8102 12.2983C12.2301 12.2983 15 9.54524 15 6.14917C14.9998 2.75348 12.2299 0 8.8102 0ZM8.84773 9.88037C6.71032 9.88037 4.97911 8.15976 4.97911 6.03714C4.97911 3.91491 6.71051 2.19391 8.84773 2.19391C10.9851 2.19391 12.7164 3.91472 12.7164 6.03714C12.7164 8.15976 10.9851 9.88037 8.84773 9.88037Z"/>
<path d="M11.1269 5.13455V5.12878L9.75823 5.13032L9.75649 3.77404C9.75649 3.69406 9.72452 3.61736 9.66761 3.56078C9.6107 3.50421 9.53351 3.4724 9.453 3.47235C9.44661 3.47235 9.44062 3.47389 9.43423 3.47427H8.2574C8.25102 3.47389 8.24502 3.47235 8.23864 3.47235C8.07093 3.47235 7.93515 3.60725 7.93515 3.77404C7.93515 3.78442 7.93727 3.79422 7.93824 3.80441L7.93689 5.13243L6.57107 5.13397C6.40317 5.13397 6.26758 5.26906 6.26758 5.43567V6.64206C6.26758 6.80866 6.40337 6.94356 6.57107 6.94356C6.58152 6.94356 6.59138 6.94144 6.60163 6.94048L7.93495 6.94183L7.93321 8.29349H7.93534L7.93495 8.2981C7.93495 8.4649 8.07093 8.59961 8.23845 8.59961L8.24038 8.59941V8.60153H9.45474V8.59941C9.53444 8.59891 9.61074 8.56726 9.66714 8.51131C9.72354 8.45535 9.7555 8.37959 9.7561 8.30041H9.76191L9.76017 6.94394L11.1196 6.94529V6.94317L11.1242 6.94356C11.2921 6.94356 11.4277 6.80847 11.4277 6.64206V5.43567C11.4279 5.35616 11.3963 5.27983 11.3399 5.22339C11.2836 5.16695 11.207 5.13501 11.1269 5.13455Z"/>
</svg>
