<svg width="477" height="481" viewBox="0 0 477 481" fill="none" xmlns="http://www.w3.org/2000/svg">
<path d="M55.5938 419.125H23.1562V429.766H54.0469C58.8906 429.766 62.1562 430.594 63.8438 432.25C65.5625 433.906 66.4219 436.984 66.4219 441.484V448.281C66.4219 452.75 65.5625 455.828 63.8438 457.516C62.125 459.172 58.8594 460 54.0469 460H23.4375C18.5625 460 15.2812 459.172 13.5938 457.516C11.9062 455.859 11.0625 452.781 11.0625 448.281V446.922L21.2344 444.812V450.672H56.25V439.375H25.3594C20.5469 439.375 17.2969 438.547 15.6094 436.891C13.9219 435.234 13.0781 432.156 13.0781 427.656V422.172C13.0781 417.703 13.9219 414.641 15.6094 412.984C17.3281 411.297 20.5781 410.453 25.3594 410.453H53.4844C58.1094 410.453 61.3125 411.25 63.0938 412.844C64.875 414.438 65.7656 417.266 65.7656 421.328V422.359L55.5938 424.75V419.125ZM87.7256 460V419.406H97.5694V460H87.7256ZM116.623 460V419.406H124.545L144.42 443.5L164.201 419.406H172.17V460H162.982V432.062L144.842 455.125H142.92L124.545 432.719V460H116.623ZM191.271 460V419.406H227.833C231.208 419.406 233.63 420.031 235.099 421.281C236.599 422.5 237.349 424.5 237.349 427.281V436.281C237.349 439.031 236.599 441.031 235.099 442.281C233.599 443.531 231.177 444.156 227.833 444.156H201.021V460H191.271ZM223.614 426.391H201.021V437.172H223.614C225.333 437.172 226.505 436.938 227.13 436.469C227.786 435.969 228.114 435.109 228.114 433.891V429.672C228.114 428.516 227.786 427.688 227.13 427.188C226.474 426.656 225.302 426.391 223.614 426.391ZM252.512 460V419.406H262.496V452.406H294.324V460H252.512ZM306.441 460V419.406H349.987V426.578H316.425V435.438H335.972V442.422H316.425V452.406H350.503V460H306.441ZM380.948 410.453V450.672H413.807V410.453H425.291V448.281C425.291 452.781 424.432 455.859 422.713 457.516C421.026 459.172 417.791 460 413.01 460H381.698C376.916 460 373.666 459.188 371.948 457.562C370.26 455.906 369.416 452.812 369.416 448.281V410.453H380.948ZM451.658 460V410.453H463.189V460H451.658Z" fill="white"/>
<path d="M439.164 291.396C435.751 287.422 432.061 283.614 428.094 280.054C417.023 270.119 404.015 262.005 389.716 256.21C374.863 250.166 358.903 246.771 342.666 246.109L130.481 246.026H129.835C119.964 245.612 110.185 243.543 101.144 239.9C92.3798 236.34 84.4459 231.455 77.7113 225.328C70.5154 218.871 64.7957 211.254 60.8287 202.809C56.7695 194.116 54.6477 184.678 54.6477 175.239C54.6477 165.801 56.7695 156.363 60.8287 147.67C64.7957 139.225 70.5154 131.608 77.7113 125.151C84.9071 118.693 93.3945 113.56 102.804 110C112.491 106.274 123.008 104.453 133.525 104.453L155.482 104.453L290.358 104.453V154.293H155.482L133.525 154.293C130.389 154.293 127.344 154.873 124.484 155.949C121.717 157.025 119.134 158.598 117.012 160.503C114.89 162.407 113.137 164.725 111.938 167.209C110.738 169.775 110.093 172.507 110.093 175.322C110.093 178.22 110.738 180.869 111.938 183.519C113.137 186.002 114.798 188.321 116.919 190.225C118.949 192.046 121.348 193.536 123.931 194.613C128.174 196.351 126.145 195.855 131.127 196.351L131.772 196.434C201.424 196.434 271.169 196.434 340.821 196.434V59L133.525 59C116.181 59 99.0221 62.1461 83.0621 68.1899C67.7478 73.9853 53.7251 82.5128 41.9166 93.0274C30.108 103.625 20.6981 116.126 14.2402 129.952C7.50567 144.275 4 159.675 4 175.239C4 190.722 7.41341 206.121 14.148 220.444C20.6058 234.27 30.108 246.771 41.8243 257.369C52.8949 267.304 65.9027 275.417 80.2022 281.213C95.0551 287.257 111.015 290.651 127.252 291.313L129.097 291.396H129.743C191.184 291.396 377.815 291.396 439.164 291.396Z" fill="white"/>
<path d="M183.988 154.128H155.482L133.525 154.128C130.388 154.128 127.344 154.707 124.484 155.783C121.716 156.86 119.133 158.433 117.012 160.337C114.89 162.241 113.137 164.559 111.938 167.043C110.738 169.61 110.092 172.342 110.092 175.157C110.092 178.054 110.738 180.704 111.938 183.353C113.137 185.837 114.797 188.155 116.919 190.059C118.949 191.881 121.347 193.371 123.931 194.447C128.174 196.186 126.145 195.689 131.126 196.186L131.772 196.269C201.424 196.269 271.169 196.269 340.821 196.269L182.328 196.269L181.682 196.186C176.7 195.772 178.73 196.186 174.486 194.447C171.903 193.371 169.504 191.881 167.475 190.059C165.353 188.155 163.6 185.837 162.493 183.353C161.294 180.787 160.648 178.054 160.648 175.157C160.648 172.342 161.294 169.61 162.493 167.043C163.692 164.559 165.445 162.241 167.567 160.337C169.689 158.433 172.272 156.86 175.04 155.783C177.899 154.707 180.852 154.128 183.988 154.128ZM54.7397 180.041C54.6475 178.468 54.5552 176.813 54.5552 175.239C54.5552 173.666 54.6475 172.011 54.7397 170.438C55.3855 156.529 58.7989 142.785 64.8877 129.952C71.3456 116.126 80.8477 103.625 92.6563 93.0274C104.465 82.43 118.395 73.9853 133.802 68.1899C149.485 62.2289 166.46 59.0828 183.435 59L133.617 59C116.273 59 99.1141 62.1461 83.1541 68.1899C67.8399 73.9853 53.8172 82.5128 42.0086 93.0274C30.2001 103.625 20.7901 116.126 14.3323 129.952C7.59771 144.275 4.09204 159.675 4.09204 175.239C4.09204 190.722 7.50546 206.121 14.24 220.444C20.6978 234.27 30.2001 246.771 41.9164 257.369C52.9869 267.304 65.9948 275.417 80.2942 281.213C95.1472 287.257 111.107 290.651 127.344 291.313L129.189 291.396H129.835L179.837 291.396L177.992 291.313C161.755 290.651 145.703 287.174 130.942 281.213C116.642 275.417 103.635 267.304 92.5641 257.369C80.7555 246.771 71.3456 234.187 64.8877 220.444C58.7067 207.611 55.3855 193.868 54.7397 180.041ZM290.265 104.287V154.128L340.821 154.128V104.287L290.265 104.287Z" fill="white"/>
<path d="M4.00049 382.053C7.41391 378.079 11.1041 374.271 15.071 370.711C26.1415 360.776 39.1494 352.662 53.4489 346.867C65.442 341.982 78.2653 338.836 91.2732 337.428L313.33 337.428H315.175L318.219 337.263C340.914 336.352 363.239 331.467 383.997 323.105C403.924 314.992 422.098 303.732 437.596 289.823C452.634 276.328 464.904 260.515 473.852 243.211C475.513 250.663 476.343 258.197 476.343 265.814C476.343 281.296 472.93 296.695 466.195 311.018C459.737 324.844 450.235 337.346 438.519 347.943C427.448 357.878 414.441 365.991 400.141 371.787C385.288 377.831 369.328 381.225 353.091 381.887L351.246 381.97H350.6C289.159 382.053 65.3497 382.053 4.00049 382.053Z" fill="white"/>
</svg>
