<svg width="13" height="13" viewBox="0 0 13 13" fill="white" xmlns="http://www.w3.org/2000/svg">
<path d="M6.5762 0.569003C6.90657 0.204671 7.35459 0 7.82174 0C8.2889 0 8.73692 0.204671 9.06729 0.569003L12.4842 4.33824C12.8145 4.70268 13 5.19691 13 5.71223C13 6.22755 12.8145 6.72177 12.4842 7.08621L7.63941 12.4306C7.30909 12.7951 6.86106 12.9999 6.39386 13H3.96354C3.49633 12.9999 3.0483 12.7951 2.71799 12.4306L0.515813 10.0013C0.185538 9.63688 0 9.14266 0 8.62734C0 8.11201 0.185538 7.61779 0.515813 7.25335L6.57531 0.569003H6.5762ZM7.15757 11.5881L2.49513 6.44489L1.13947 7.94034C0.974331 8.12256 0.881562 8.36968 0.881562 8.62734C0.881562 8.885 0.974331 9.13211 1.13947 9.31433L3.34164 11.7436C3.5068 11.9258 3.73082 12.0282 3.96442 12.0283H6.39474C6.62834 12.0282 6.85235 11.9258 7.01751 11.7436L7.15845 11.5881H7.15757Z"/>
</svg>
