<svg width="20" height="20" viewBox="0 0 20 20" fill="none" xmlns="http://www.w3.org/2000/svg">
<path d="M19 0H1C0.734878 0.000463153 0.480704 0.158647 0.293234 0.439851C0.105765 0.721056 0.000308769 1.10232 0 1.5V6.5H1.33333V2H18.6667V18H1.33333V13.5H0V18.5C0.000308769 18.8977 0.105765 19.2789 0.293234 19.5601C0.480704 19.8414 0.734878 19.9995 1 20H19C19.2651 19.9995 19.5193 19.8414 19.7068 19.5601C19.8942 19.2789 19.9997 18.8977 20 18.5V1.5C19.9997 1.10232 19.8942 0.721056 19.7068 0.439851C19.5193 0.158647 19.2651 0.000463153 19 0V0Z" fill="#D9D9D9"/>
<path d="M8.25285 13L9.20222 14L13 10L9.20222 6L8.25285 7.00003L10.4297 9.29291H0V10.7071H10.4298L8.25285 13Z" fill="#D9D9D9"/>
</svg>
