<svg width="20" height="20" viewBox="0 0 20 20" fill="none" xmlns="http://www.w3.org/2000/svg">
<path d="M10 0C8.02219 0 6.08879 0.58649 4.4443 1.6853C2.79981 2.78412 1.51809 4.3459 0.761209 6.17316C0.00433283 8.00043 -0.1937 10.0111 0.192152 11.9509C0.578004 13.8907 1.53041 15.6725 2.92894 17.0711C4.32746 18.4696 6.10929 19.422 8.0491 19.8078C9.98891 20.1937 11.9996 19.9957 13.8268 19.2388C15.6541 18.4819 17.2159 17.2002 18.3147 15.5557C19.4135 13.9112 20 11.9778 20 10C20 7.34783 18.9464 4.80429 17.0711 2.92893C15.1957 1.05357 12.6522 0 10 0V0ZM10 18.5714C8.30473 18.5714 6.64754 18.0687 5.23797 17.1269C3.82841 16.185 2.72979 14.8464 2.08104 13.2801C1.43229 11.7139 1.26254 9.99049 1.59327 8.3278C1.924 6.6651 2.74035 5.13782 3.93909 3.93908C5.13782 2.74035 6.66511 1.924 8.3278 1.59327C9.99049 1.26254 11.7139 1.43228 13.2801 2.08103C14.8464 2.72978 16.185 3.8284 17.1269 5.23797C18.0687 6.64753 18.5714 8.30473 18.5714 10C18.5714 12.2733 17.6684 14.4535 16.0609 16.0609C14.4535 17.6684 12.2733 18.5714 10 18.5714Z" fill="#D9D9D9"/>
<path d="M10 5C9.01109 5 8.0444 5.29325 7.22215 5.84265C6.3999 6.39206 5.75904 7.17295 5.3806 8.08658C5.00217 9.00021 4.90315 10.0055 5.09608 10.9755C5.289 11.9454 5.76521 12.8363 6.46447 13.5355C7.16373 14.2348 8.05464 14.711 9.02455 14.9039C9.99445 15.0969 10.9998 14.9978 11.9134 14.6194C12.827 14.241 13.6079 13.6001 14.1573 12.7778C14.7068 11.9556 15 10.9889 15 10C15 8.67392 14.4732 7.40215 13.5355 6.46447C12.5979 5.52678 11.3261 5 10 5Z" fill="#D9D9D9"/>
</svg>
