<svg width="20" height="20" viewBox="0 0 20 20" fill="none" xmlns="http://www.w3.org/2000/svg">
<path fill-rule="evenodd" clip-rule="evenodd" d="M6.39584 12.4158L1.91251 16.8992C1.75493 17.0568 1.66644 17.2707 1.66652 17.4936C1.6666 17.7166 1.75523 17.9303 1.91293 18.0879C2.07062 18.2455 2.28445 18.334 2.50739 18.3339C2.73032 18.3338 2.94409 18.2452 3.10168 18.0875L7.58501 13.6042C8.92525 14.6422 10.6106 15.1307 12.2982 14.9703C13.9859 14.8098 15.549 14.0125 16.6696 12.7405C17.7902 11.4685 18.3842 9.81733 18.3306 8.12295C18.2771 6.42856 17.58 4.81821 16.3813 3.61949C15.1826 2.42078 13.5723 1.72375 11.8779 1.6702C10.1835 1.61665 8.53235 2.2106 7.26033 3.33123C5.98832 4.45185 5.19099 6.01497 5.03055 7.7026C4.87011 9.39022 5.35861 11.0756 6.39668 12.4158H6.39584ZM11.6667 13.3333C10.3406 13.3333 9.06882 12.8065 8.13114 11.8689C7.19346 10.9312 6.66668 9.65941 6.66668 8.33332C6.66668 7.00724 7.19346 5.73547 8.13114 4.79779C9.06882 3.86011 10.3406 3.33332 11.6667 3.33332C12.9928 3.33332 14.2645 3.86011 15.2022 4.79779C16.1399 5.73547 16.6667 7.00724 16.6667 8.33332C16.6667 9.65941 16.1399 10.9312 15.2022 11.8689C14.2645 12.8065 12.9928 13.3333 11.6667 13.3333Z" fill="#AAAAAA"/>
</svg>
