<svg width="20" height="20" viewBox="0 0 20 20" fill="none" xmlns="http://www.w3.org/2000/svg">
<path d="M0.833333 18H19.1667C19.3876 17.9997 19.5994 17.8942 19.7556 17.7068C19.9119 17.5193 19.9997 17.2651 20 17V3C19.9997 2.73488 19.9119 2.4807 19.7556 2.29323C19.5994 2.10576 19.3876 2.0003 19.1667 2H0.833333C0.612397 2.0003 0.400583 2.10576 0.244358 2.29323C0.0881325 2.4807 0.000253639 2.73488 0 3V17C0.000253639 17.2651 0.0881325 17.5193 0.244358 17.7068C0.400583 17.8942 0.612397 17.9997 0.833333 18V18ZM1.33333 3.6H18.6667V16.4H1.33333V3.6Z" fill="#D9D9D9"/>
</svg>
