<svg width="18" height="17" viewBox="0 0 18 17" fill="none" xmlns="http://www.w3.org/2000/svg">
<path d="M4.91925 10.4645C3.50609 10.4645 2.32278 11.3383 1.93461 12.5253H0V14.1739H1.93461C2.32278 15.3609 3.50609 16.2347 4.91925 16.2347C6.33242 16.2347 7.51573 15.3609 7.9039 14.1739H17.8882V12.5253H7.9039C7.51573 11.3383 6.33242 10.4645 4.91925 10.4645ZM4.91925 14.5861C4.17958 14.5861 3.57764 14.0313 3.57764 13.3496C3.57764 12.6679 4.17958 12.1132 4.91925 12.1132C5.65893 12.1132 6.26087 12.6679 6.26087 13.3496C6.26087 14.0313 5.65893 14.5861 4.91925 14.5861ZM12.9689 5.51874C11.5558 5.51874 10.3725 6.3925 9.9843 7.57949H0V9.2281H9.9843C10.3725 10.4151 11.5558 11.2888 12.9689 11.2888C14.3821 11.2888 15.5654 10.4151 15.9536 9.2281H17.8882V7.57949H15.9536C15.5654 6.3925 14.3821 5.51874 12.9689 5.51874ZM12.9689 9.64025C12.2293 9.64025 11.6273 9.08549 11.6273 8.40379C11.6273 7.7221 12.2293 7.16734 12.9689 7.16734C13.7086 7.16734 14.3106 7.7221 14.3106 8.40379C14.3106 9.08549 13.7086 9.64025 12.9689 9.64025Z" fill="#D9D9D9"/>
<path d="M9.69272 2.63363C9.30455 1.44664 8.12124 0.572876 6.70807 0.572876C5.29491 0.572876 4.1116 1.44664 3.72343 2.63363H0V4.28223H3.72343C4.1116 5.46923 5.29491 6.34299 6.70807 6.34299C8.12124 6.34299 9.30455 5.46923 9.69272 4.28223H18V2.63363H9.69272ZM6.70807 4.69438C5.9684 4.69438 5.36646 4.13963 5.36646 3.45793C5.36646 2.77623 5.9684 2.22148 6.70807 2.22148C7.44775 2.22148 8.04969 2.77623 8.04969 3.45793C8.04969 4.13963 7.44775 4.69438 6.70807 4.69438Z" fill="#D9D9D9"/>
</svg>
